<?xml version="1.0" encoding="utf-8"?>
<!-- Generator: Adobe Illustrator 26.2.1, SVG Export Plug-In . SVG Version: 6.00 Build 0)  -->
<svg version="1.1" id="Layer_1" xmlns="http://www.w3.org/2000/svg" xmlns:xlink="http://www.w3.org/1999/xlink" x="0px" y="0px"
	 viewBox="0 0 649 541.8" style="enable-background:new 0 0 649 541.8;" xml:space="preserve">
<g>
	<path d="M408.2,429.1v7.5c-1.7,0-3.4,0-5,0c-53.1,0-106.3,0.1-159.4-0.1c-5,0-9.9-1.6-15-3.1c12.8-8.1,23.7-17.6,31.1-31.3
		c3.9,8.7,8.1,16.2,15.7,21.2c8.2,5.5,12.9,5.6,20.9-0.1c9.3-6.6,14.4-16.1,17-26.8c1.7-7,2.9-14.4,2.9-21.6
		c0.2-76.1,0.1-152.2,0.1-228.4c0-1.6,0-3.3,0-5.4c-3.9,0-7.4,0-10.8,0c-15,0.1-30,0.4-45,0.1c-4.7-0.1-5.8,1.4-5.8,5.9
		c0.1,58.8,0.1,117.6,0.1,176.4c0,1.9,0,3.9,0,5.8c-0.5,0.1-0.4,0.1-0.9,0.3c-1.6-2.5-3.2-4.9-4.7-7.4c-10.5-17-24.7-30-42.2-39.3
		c-2.8-1.5-3.6-3.2-3.6-6.2c0.1-24.2,0.1-48.3,0-72.5c-0.1-16.3-2.3-32.2-9-47.2c-1-2.1-2.1-4.2-3.3-6.1c-4-6.4-8.8-10.3-17.4-9.8
		c-17.3,1-34.7-0.1-51.9,1.1c-18.6,1.4-35.8,7.6-49.4,21.2c-16.1,16-21.5,43.1,1.2,63.5c14.5,13.1,31.6,22,48.9,30.7
		c24.8,12.5,49.8,24.6,74.3,37.5c15.5,8.2,29.6,18.7,41.1,32.1c11.7,13.5,18.1,29,17,47.1c-1.4,21.7-13,36.8-30.8,47.9
		c-14.6,9.1-30.8,14-47.5,17.3c-28.7,5.6-57.6,5.9-86.6,3.2c-32.3-3-62-13.1-87.1-34.7c-2.6-2.2-3.1-3.8-1.6-7
		c9.5-21.2,18.7-42.6,28.4-64.7c1,7.5,1.7,14.1,2.9,20.6c6.7,36.3,40.3,71.2,76.6,77.9c23.9,4.4,46.9,0.2,67.5-12.9
		c17.3-11,25.7-27.1,23.9-47.8c-0.8-9.1-5.9-16.1-12-22.4c-13.3-13.7-29.7-22.9-46.3-31.7c-25.1-13.4-50.7-25.9-75.3-40
		c-13-7.5-25.2-16.8-36.6-26.7c-35.2-30.9-21-78.5,10.8-98.1c17.6-10.9,37-16.3,57.3-19.1c33.2-4.5,66.5-1.7,99.8-2.3
		c4.2-0.1,8.2-1.5,11.4-4.1c15.1-12.1,26.5-27,34.7-44.3c2.3-4.8,4.9-6.7,10.5-4.8v52.8h61.4c0.1-1.8,0.2-3.5,0.2-5.3
		c0.4-17.3-0.2-34.7,1.2-51.9c2.8-33.6,20.4-56.8,52.5-67.8c26-8.9,52.8-10.1,79.8-5.6c27.3,4.6,46.1,20.7,59.5,44.3
		c12,21.3,12.1,21.2,2.2,43.2c-5.9,13.2-11.7,26.5-17.5,39.7c-0.4,0.9-0.6,1.8-1.1,3.3c58.6,1.4,103.8,26.7,134,76.6
		c20.1,33.2,25.8,69.7,18.8,107.7c-13.8,75.1-81.7,134-166.2,125.8c-76.5-7.4-134.4-71.8-137.4-148.3
		c-3.4-85.6,62.6-158.4,147.4-161.7c-0.8-12.9-1.3-25.5-2.5-38.1c-1.7-17.6-4.5-35-11.8-51.3c-11.2-25.2-31.3-37.5-58.8-35.5
		c-5.9,0.4-12,1.2-17.7,2.8c-18.7,5.4-27,19.8-28.5,37.6c-1.8,22.4-1.7,44.9-2.3,67.3c-0.2,8,0,15.9,0,24.4h40v7.8h-40
		c0,8.2,0.3,15.8-0.1,23.4c-0.1,2.7-1.2,5.9-3,7.8c-23.4,24.5-38.1,53.5-42.3,87c-6.7,53.7,9.4,99.8,48.8,137.4l11.3,9.6
		c3.1,2.7,6.5,5,10.1,7L408.2,429.1z M592.9,300.8c-0.1-34.6-5.9-64.3-19-92.3c-10.8-23.2-25.5-43.3-47.8-56.8
		c-12.7-7.7-26.4-11.6-41.4-10.4c-21.2,1.7-37.6,12.5-51,28.2c-19.4,22.7-29,49.9-33.1,79c-5.6,39.2-1.2,77.3,14,114
		c9.6,23.3,23.1,44,43.9,58.9c21.3,15.3,44.4,19.9,69.2,9.3c17.5-7.5,30.1-20.6,39.9-36.5C585.9,364.4,592.6,331.6,592.9,300.8z"/>
</g>
<g>
	<g>
		<path d="M413.4,486c-2.3,1.4-4.4,2.6-6.8,4c-7.5-10.5-17.6-10.4-28.3-7.4c-4.5,1.3-7.8,4.1-7.7,9.2c0.1,5.3,4.3,6.8,8.3,7.9
			c6.9,1.8,14,2.9,20.9,4.8c13.4,3.7,19.1,15.5,12.5,26.4c-1.8,3-4.8,5.9-7.9,7.2c-12.5,5.5-25,5.2-36.6-2.6c-3.5-2.4-6-6.3-9.4-9.9
			c3.6-1.9,5.9-3.1,8.1-4.2c8.6,11.1,19.7,14.6,31.7,10.2c4.4-1.6,7.5-4.3,7.7-9.4c0.2-5.1-3-7.7-7.2-8.9c-7-2-14.2-3.4-21.3-5.2
			c-12.5-3.1-17.9-10.9-14.9-21.5c2-7,7.3-10.5,13.8-12.4C390.8,470.1,407,472.7,413.4,486z"/>
	</g>
	<g>
		<path d="M0,525c2.3-1.2,4.5-2.4,7-3.7c7.9,11.6,18.6,14.3,31.5,10.3c4.8-1.5,7.9-4.5,8-9.6c0.1-5.2-3.5-7.8-7.9-9
			c-6.7-1.9-13.6-3.1-20.3-4.8c-5.7-1.5-11.2-3.5-14.3-9.1c-3.3-6-1.9-14.4,3.1-19.4c11.4-11.4,37.3-8.9,46.1,4.5
			c0.3,0.4,0.3,0.9,0.7,1.8c-2.2,1.3-4.4,2.6-6.6,3.8c-8.2-9-18.1-11.4-28.9-7.2c-4.2,1.6-7.2,4.4-7.2,9.1c0,5,3.9,6.7,7.9,7.7
			c6.9,1.8,14,3,20.9,4.8c7.2,1.9,13.3,5.3,15,13.5c1.4,6.6-0.2,12.2-5,16.9C38.8,545.6,7.2,544.4,0,525z"/>
	</g>
	<g>
		<path d="M188.6,481.5c0,8.9,0,44.1,0,52.4c-3,0-5.6,0-8.4,0c0-11,0-49.1,0-60.6c12.4,0.7,24.7-1.9,36.7,2.3
			c13.8,4.8,22.2,19.4,20.6,34.7c-1.7,16.6-12.3,28.2-28.5,29.8c-9.4,0.9-18.9,0.2-28.7,0.2c0-2.5,0-4.9,0-8
			c1.7-0.1,3.4-0.3,5.1-0.3c7.3-0.1,14.7,0.1,22-0.3c11.6-0.7,20.3-10,21.2-22c1-12.9-5.8-24.1-17.2-26.3
			C204.1,481.7,196.5,482,188.6,481.5z"/>
	</g>
	<g>
		<path d="M118.9,473.7c3,0,5.4,0,8.4,0c0,4.9,0,9.5,0,14.1c0,9.7-0.2,19.3,0.2,29c0.3,9,7.1,15.6,15.9,16.3
			c8.8,0.7,16.3-4.8,18.2-13.6c0.6-2.7,0.8-5.6,0.8-8.4c0.1-12.3,0-24.6,0-37.3c2.9,0,5.4,0,8.7,0c0,3.1,0,6.2,0,9.3
			c0,10.3,0.2,20.7-0.1,31c-0.5,17.1-11.4,27.8-27.6,27.4c-12.5-0.3-23.7-9.5-24.4-22C118.3,504.4,118.9,489.2,118.9,473.7z"/>
	</g>
	<g>
		<g>
			<path d="M504.6,472.9c1.1,4.9,1,7.7-5,9c-11.1,2.5-17.3,12-17.4,24.3c-0.1,12.7,6.5,22.5,17.2,25.8c6.4,2,6.4,2,5,8.9
				c-15.8,1.4-30.7-14.3-31-32.8C473,487.7,486.9,472,504.6,472.9z"/>
		</g>
		<g>
			<path d="M509.7,480.4c0-2.6,0-4.9,0-7.1c12.3-1.7,30.2,8.8,31.6,31.5c1.2,19.9-13.1,36.9-31.4,36.6c0-2.4,0-4.8,0-7.8
				c7.7-1.4,15.5-4.3,18.8-12.3c2.3-5.5,3.6-11.8,3.5-17.7C531.9,491.3,524.8,484.6,509.7,480.4z"/>
		</g>
	</g>
	<g>
		<g>
			<path d="M294.3,533.7c0,2.4,0,4.8,0,7.7c-11.1-0.6-19.9-5-25.5-14.2c-8-13.1-8.1-26.9-0.4-40.2c5.6-9.6,14.6-13.9,25.9-14.5
				c0,2.9,0,5.3,0,7.7c-16.6,5.6-22.5,12.5-22.6,26C271.5,520.3,277.9,528.1,294.3,533.7z"/>
		</g>
		<g>
			<path d="M299.7,473c16.6-1,30.3,13.9,31,32.4c0.7,19.7-13,35.9-30.6,35.8c-1.7-6.7-1.5-7.1,4.6-9c10.7-3.3,17.4-12.9,17.5-25.1
				c0.1-12.1-6.5-21.8-17.3-25.2C298.9,480,298.9,480,299.7,473z"/>
		</g>
	</g>
	<g>
		<path d="M245.9,473.6c2.9,0,5.5,0,8.3,0c0,22.3,0,44.3,0,66.6c-2.8,0-5.4,0-8.3,0C245.9,518.2,245.9,496.2,245.9,473.6z"/>
	</g>
	<g>
		<g>
			<path d="M557.5,512.1c0,9.8,0,18.9,0,28.2c-3,0-5.4,0-8.3,0c0-12,0-24,0-36.4c14.8,0,29.7,0,44.8,0c0,2.6,0,5,0,8.2
				C582,512.1,570.1,512.1,557.5,512.1z"/>
		</g>
		<g>
			<path d="M595.1,473.8c0,2.9,0,5.3,0,8.2c-15.3,0-30.5,0-46,0c0-2.7,0-5.2,0-8.2C564.4,473.8,579.5,473.8,595.1,473.8z"/>
		</g>
	</g>
	<g>
		<g>
			<path d="M647.1,503.9c0,2.6,0,5,0,8c-11.7,0-23.4,0-35.7,0c0,9.6,0,18.7,0,28.2c-3.1,0-5.6,0-8.6,0c0-11.8,0-23.8,0-36.2
				C617.4,503.9,632.1,503.9,647.1,503.9z"/>
		</g>
		<g>
			<path d="M648.4,482c-15.3,0-30.3,0-45.7,0c0-2.7,0-5.3,0-8.2c15.1,0,30.3,0,45.7,0C648.4,476.5,648.4,479.1,648.4,482z"/>
		</g>
	</g>
	<g>
		<g>
			<path d="M88.2,540.4c-2.8,0-5.3,0-8.4,0c0-19.4,0-38.8,0-58.6c-7.9,0-15.1,0-22.7,0c0-2.9,0-5.3,0-8c10.3,0,20.5,0,31.1,0
				C88.2,495.8,88.2,517.8,88.2,540.4z"/>
		</g>
		<g>
			<path d="M111.3,473.9c0,2.6,0,4.7,0,7.3c-5.6,0-19.4,0-25.2,0c0-2.4,0-4.6,0-7.3C91.6,473.9,105.3,473.9,111.3,473.9z"/>
		</g>
	</g>
	<g>
		<g>
			<path d="M439.4,481.7c-8,0-15.1,0-22.5,0c0-2.8,0-5.1,0-7.9c10.1,0,20.3,0,30.8,0c0,22.1,0,44,0,66.3c-2.6,0-5.1,0-8.2,0
				C439.4,520.9,439.4,501.7,439.4,481.7z"/>
		</g>
		<g>
			<path d="M453.7,481.3c0-2.6,0-4.9,0-7.5c5.6,0,11,0,16.9,0c0,2.4,0,4.8,0,7.5C465,481.3,459.6,481.3,453.7,481.3z"/>
		</g>
	</g>
</g>
</svg>
